<?xml version="1.0" standalone="no"?>
<!DOCTYPE svg PUBLIC "-//W3C//DTD SVG 20010904//EN"
 "http://www.w3.org/TR/2001/REC-SVG-20010904/DTD/svg10.dtd">
<svg version="1.0" xmlns="http://www.w3.org/2000/svg"
 width="500.000000pt" height="500.000000pt" viewBox="0 0 500.000000 500.000000"
 preserveAspectRatio="xMidYMid meet">

<g transform="translate(0.000000,500.000000) scale(0.100000,-0.100000)"
fill="#000000" stroke="none">
<path d="M2097 4584 c-2 -2 -68 -4 -147 -6 -80 -1 -151 -4 -157 -6 -19 -6 -16
-29 4 -41 10 -5 15 -13 11 -17 -4 -4 -14 -1 -23 6 -8 7 -15 8 -15 3 0 -5 -89
-10 -212 -11 -117 -1 -267 -4 -333 -7 -145 -5 -387 -6 -473 -1 -109 7 -102 20
-102 -184 0 -148 3 -179 15 -184 21 -8 374 -10 382 -2 3 3 -27 7 -68 7 -55 1
-66 3 -44 9 21 5 2 8 -62 9 -85 1 -128 13 -86 24 11 3 8 5 -9 6 -34 1 -37 18
-5 24 15 3 11 5 -13 6 -48 2 -26 19 30 24 42 3 42 4 -12 5 -55 2 -80 14 -58
27 7 4 7 12 2 18 -9 13 -9 24 2 49 13 29 98 38 412 44 302 6 385 0 368 -28 -5
-7 5 -9 30 -4 23 4 36 3 36 -4 0 -5 7 -10 15 -10 9 0 12 6 9 15 -4 10 0 15 15
15 20 0 21 -1 5 -24 -9 -15 -21 -22 -30 -19 -22 8 -64 -6 -64 -22 0 -8 8 -15
18 -15 14 0 15 -2 2 -10 -12 -8 -11 -10 7 -10 12 0 26 6 30 14 4 8 17 16 28
18 15 2 19 -2 17 -17 -2 -11 -5 -21 -6 -22 -1 -2 -49 -6 -107 -9 -131 -9 -179
-21 -94 -25 33 -1 49 -4 35 -6 -36 -7 -47 -19 -48 -54 -1 -30 1 -31 31 -26
l32 6 -30 -14 -30 -14 48 -1 c44 0 48 2 42 20 -4 13 -2 20 7 20 8 1 6 6 -6 15
-10 7 -15 19 -11 25 5 9 9 9 14 1 9 -15 100 2 112 20 12 20 155 27 173 9 6 -6
15 -10 20 -10 6 0 5 5 -2 12 -21 21 -13 28 31 28 31 0 45 -5 55 -20 10 -17 10
-20 -3 -20 -18 0 -20 -16 -2 -24 10 -5 10 -7 0 -12 -18 -8 -16 -24 3 -24 8 0
12 -4 9 -10 -3 -5 -15 -10 -26 -10 -17 0 -24 -16 -20 -42 0 -5 -4 -8 -10 -8
-5 0 -7 -4 -4 -10 3 -5 -6 -12 -21 -16 -26 -7 -26 -8 -9 -20 18 -14 18 -14 0
-28 -24 -17 -208 -31 -285 -21 -61 8 -76 14 -39 17 43 2 47 3 55 11 4 4 19 7
33 7 20 0 22 3 11 9 -8 6 -18 7 -22 5 -4 -3 -24 -1 -43 5 -21 6 -37 6 -41 0
-3 -5 3 -9 13 -9 11 -1 5 -8 -18 -20 -33 -17 -56 -19 -235 -17 l-198 2 0 25
c0 21 5 26 34 31 l35 6 -42 2 c-23 0 -44 5 -48 10 -5 9 7 12 85 24 14 3 -6 5
-45 6 l-70 1 2 -727 c2 -473 -1 -723 -7 -713 -7 11 -9 -1 -9 -40 0 -30 -3 -76
-6 -102 -5 -32 -3 -48 4 -48 6 0 10 -10 10 -22 -1 -17 -2 -19 -6 -5 -2 9 -9
17 -14 17 -14 0 -11 -17 9 -36 9 -10 16 -19 15 -21 -2 -2 -12 -12 -23 -23 -12
-12 -20 -33 -20 -55 0 -24 -5 -35 -14 -35 -20 0 -25 11 -15 35 4 11 8 16 10
10 6 -34 47 459 49 595 1 91 3 236 4 323 2 119 0 160 -10 168 -7 6 -18 8 -24
4 -5 -3 -19 -3 -30 0 -18 6 -20 17 -23 143 -1 75 -4 -444 -5 -1154 -2 -1170
-1 -1292 14 -1298 24 -9 24 -9 24 34 0 22 5 40 10 40 6 0 10 -10 10 -23 0 -13
3 -27 7 -31 4 -3 8 -14 9 -23 2 -10 9 -28 15 -41 18 -32 0 -42 -71 -42 -58 0
-73 6 -83 30 -4 13 -6 12 -6 -1 -1 -9 -11 -19 -23 -23 -44 -11 -50 -8 -46 31
4 52 -16 51 -30 -1 -9 -34 -17 -45 -37 -50 l-25 -6 -1 -138 c0 -75 -1 -166 -1
-202 l0 -65 681 -3 681 -2 0 -34 c0 -19 -4 -37 -9 -41 -6 -3 -7 9 -4 30 5 34
4 35 -25 35 -17 0 -33 -6 -35 -12 -4 -10 -6 -10 -6 0 -1 6 -12 12 -26 12 -14
0 -25 -6 -25 -12 0 -10 -2 -10 -8 -1 -10 15 -113 16 -164 1 -37 -11 -37 -11
-17 -29 12 -11 16 -20 9 -24 -5 -3 -63 -5 -128 -4 -64 1 -124 0 -132 -2 -11
-3 -16 6 -18 29 -4 43 -18 41 -26 -4 -5 -25 -11 -33 -19 -27 -14 10 -38 10
-52 1 -12 -7 -47 -11 -89 -9 -26 1 -28 3 -24 36 2 21 -1 36 -8 39 -18 7 -24
-4 -24 -41 0 -27 -4 -34 -17 -31 -12 2 -20 16 -24 43 -5 40 -12 36 -23 -17 -5
-21 -12 -28 -29 -28 -32 0 -62 24 -54 43 3 9 2 19 -3 22 -6 4 -10 -9 -10 -28
0 -33 -2 -35 -35 -34 -36 1 -39 5 -35 44 1 16 -3 21 -13 17 -9 -3 -13 -13 -10
-24 3 -12 -3 -22 -18 -31 -13 -6 -24 -8 -26 -3 -2 5 -23 8 -48 6 -35 -3 -45
-1 -45 11 0 9 5 19 10 22 23 14 -3 23 -53 18 -54 -5 -77 -13 -39 -13 28 0 29
-26 2 -40 -30 -16 -58 3 -62 43 -2 27 -7 32 -28 32 -21 0 -26 -5 -28 -32 -3
-30 -20 -47 -23 -23 -7 50 -8 86 -13 225 -6 212 -8 225 -17 125 -10 -118 -10
-362 0 -378 4 -7 37 -17 72 -22 87 -13 1671 -12 1729 0 25 6 55 12 68 15 12 3
22 13 22 23 0 12 -3 13 -8 5 -5 -9 -43 -14 -113 -15 l-104 -3 -3 38 c-3 39
-22 42 -22 4 0 -35 -14 -49 -43 -42 -22 6 -24 10 -17 36 5 17 5 29 -1 29 -5 0
-9 4 -9 9 0 5 46 12 103 15 153 11 137 -14 135 212 -1 107 -5 198 -8 204 -3 5
-28 12 -56 15 -27 3 -62 8 -77 11 -27 6 -27 7 -12 24 17 19 12 46 -6 35 -5 -4
-9 0 -9 7 -1 21 -40 -32 -40 -54 0 -10 -4 -17 -9 -14 -5 4 -11 1 -13 -6 -9
-26 -26 5 -23 40 l5 37 -13 -38 c-7 -21 -16 -35 -20 -31 -4 4 -7 2 -7 -4 0 -8
-27 -12 -85 -12 -82 0 -85 1 -91 26 -4 14 -3 44 1 67 4 23 5 67 4 97 -5 81 -2
1289 3 1399 2 60 8 96 15 98 8 3 9 12 3 28 -6 15 -6 27 0 30 5 3 8 38 5 77 -4
73 9 133 24 109 10 -16 12 9 13 149 2 151 -2 167 -33 174 -15 3 -29 13 -33 22
-4 10 -7 193 -7 407 0 309 3 392 13 399 12 8 298 9 298 1 0 -2 -4 -11 -9 -21
-5 -9 -12 -25 -15 -36 -5 -13 -13 -17 -29 -14 -13 3 -55 -1 -93 -7 l-69 -11
-3 -126 -3 -125 73 -2 c165 -4 338 -22 418 -42 267 -68 416 -247 396 -476 -9
-102 -30 -162 -73 -213 -34 -40 -35 -42 -9 -22 39 30 86 85 125 146 21 34 31
44 31 30 0 -11 -6 -26 -12 -33 -11 -11 -10 -13 5 -7 10 3 21 6 23 6 2 0 4 9 4
20 0 17 3 18 18 9 14 -9 17 -19 13 -38 -10 -44 -44 -90 -74 -100 -27 -10 -28
-10 -23 20 4 25 2 28 -10 18 -7 -6 -12 -15 -9 -19 3 -5 -4 -12 -16 -15 -15 -5
-18 -10 -10 -18 6 -6 11 -15 11 -21 0 -5 -6 -1 -14 9 -13 18 -15 17 -55 -14
-22 -18 -45 -30 -51 -26 -6 4 -9 1 -8 -7 2 -7 -5 -12 -14 -12 -10 1 -15 -2
-13 -7 8 -12 -74 -52 -91 -45 -8 3 -12 2 -9 -3 7 -12 -31 -24 -46 -15 -7 4 -9
3 -6 -3 6 -10 -79 -43 -109 -43 -10 0 -11 -6 -4 -26 14 -35 13 -44 -5 -44 -8
0 -15 4 -15 9 0 12 -33 9 -42 -4 -5 -6 -8 -4 -8 5 0 13 -1 13 -10 0 -5 -8 -12
-11 -16 -7 -4 3 -1 13 6 22 7 9 11 17 9 19 -2 2 -34 6 -71 8 -47 4 -67 2 -65
-6 1 -6 -10 -12 -25 -14 -26 -3 -41 -22 -18 -22 18 0 10 -18 -11 -23 -18 -5
-20 -2 -14 24 5 22 3 29 -8 29 -31 0 -47 -13 -47 -36 0 -23 -3 -24 -55 -23
-31 1 -59 -2 -63 -7 -4 -5 -5 -52 -2 -104 l5 -95 35 -3 c118 -8 230 -25 283
-43 148 -50 324 -190 417 -331 35 -54 47 -65 60 -58 9 5 155 6 329 3 l312 -6
18 -24 c11 -12 22 -23 27 -23 16 0 67 -68 95 -128 24 -50 28 -66 19 -78 -10
-11 -9 -14 4 -14 9 0 16 -7 16 -15 0 -8 4 -15 8 -15 4 0 16 -14 25 -30 16 -26
16 -31 3 -36 -22 -8 -678 1 -697 10 -10 4 -15 15 -12 27 3 10 -3 31 -13 46
-10 16 -19 30 -19 33 -2 7 -73 161 -85 182 -6 10 -10 24 -10 32 0 16 -18 31
-26 23 -3 -2 13 -44 34 -93 22 -49 69 -168 106 -264 365 -948 404 -1024 569
-1105 40 -19 95 -39 122 -44 28 -4 214 -6 415 -2 l364 6 7 25 c6 26 1 375 -6
398 -3 6 -14 12 -25 12 -11 0 -23 7 -27 17 -5 14 -7 13 -14 -5 -8 -20 -13 -21
-106 -18 -54 2 -105 7 -114 11 -17 6 -73 120 -102 205 -20 58 -65 164 -123
288 -19 39 -34 75 -34 78 0 3 -17 42 -39 87 -21 45 -42 93 -46 107 -11 36 -82
177 -107 214 -12 17 -36 46 -55 65 -18 19 -33 40 -33 48 0 7 -5 13 -11 13 -5
0 -7 5 -3 11 4 7 1 10 -7 7 -8 -3 -34 17 -59 43 -25 26 -92 77 -150 115 -58
37 -99 69 -93 71 7 3 21 -1 32 -7 16 -8 21 -8 22 2 0 7 4 4 9 -7 7 -16 9 -17
9 -3 1 11 -19 26 -59 44 -93 41 -92 57 1 21 l84 -33 55 30 c105 56 196 139
310 282 145 182 222 317 270 471 21 68 26 103 9 68 -6 -14 -7 -8 -2 20 11 63
9 109 -3 125 -7 8 -15 35 -19 60 -4 24 -11 52 -16 62 -5 9 -9 25 -9 35 0 15 2
16 10 3 14 -21 13 5 -1 32 -6 11 -8 22 -5 25 7 7 27 -44 31 -77 7 -69 18 -121
28 -127 7 -4 8 46 3 158 -10 209 -10 218 -15 213 -3 -2 -14 27 -26 65 -26 81
-103 228 -154 291 -90 113 -218 215 -359 287 -108 54 -130 57 -161 19 -15 -18
-58 -21 -81 -5 -13 8 -12 12 8 26 36 25 27 40 -30 48 -111 15 -153 22 -167 26
-29 9 -21 -21 11 -38 l33 -18 -55 -5 c-30 -3 -166 -4 -302 -2 l-248 3 0 34 c0
26 -4 35 -17 35 -12 0 -14 -3 -6 -11 5 -5 8 -21 5 -35 -3 -19 -11 -24 -33 -24
-27 0 -29 3 -29 41 0 33 -3 40 -17 37 -12 -2 -19 -14 -21 -36 -5 -46 -32 -43
-32 3 0 31 -3 35 -25 35 -22 0 -25 -4 -25 -40 0 -22 -5 -40 -10 -40 -7 0 -8
13 -5 34 4 21 2 36 -5 41 -11 7 -117 14 -123 9z m-100 -59 c-8 -20 -27 -20
-27 1 0 8 5 12 10 9 6 -3 10 -1 10 6 0 7 3 10 6 6 4 -3 4 -13 1 -22z m-157 -5
c0 -5 -5 -10 -11 -10 -5 0 -7 5 -4 10 3 6 8 10 11 10 2 0 4 -4 4 -10z m1300
-24 c0 -9 -7 -12 -21 -9 -16 4 -17 8 -7 14 19 13 28 11 28 -5z m244 -71 c39
-17 47 -26 17 -20 -23 4 -61 23 -61 30 0 7 4 6 44 -10z m108 -57 c-10 -10 -42
0 -42 14 0 5 -5 6 -12 2 -6 -4 -8 -3 -4 4 5 8 15 8 37 0 18 -6 27 -14 21 -20z
m33 -8 c3 -5 -1 -10 -10 -10 -9 0 -13 5 -10 10 3 6 8 10 10 10 2 0 7 -4 10
-10z m-525 -32 c0 -4 10 -8 23 -8 43 0 159 -33 145 -41 -14 -9 5 -13 48 -10
11 1 27 -5 34 -13 7 -9 20 -16 29 -17 11 0 12 -2 3 -6 -18 -7 33 -33 66 -33
14 0 22 -3 19 -6 -6 -6 35 -42 79 -71 15 -9 -16 -12 -156 -15 -214 -3 -690 1
-745 7 -39 4 -39 4 10 -10 28 -8 58 -13 68 -11 9 2 15 0 11 -5 -3 -5 0 -9 5
-9 6 0 11 3 11 8 0 7 739 5 776 -3 11 -3 32 -16 47 -29 17 -16 33 -22 47 -19
17 4 20 1 18 -18 -2 -18 2 -24 15 -23 24 2 21 -11 -11 -46 -40 -45 -87 -20
-62 33 l11 22 -17 -22 c-16 -23 -44 -21 -44 3 0 12 -6 12 -36 -1 -20 -8 -46
-15 -58 -16 -11 -1 -1 -6 24 -11 40 -9 43 -12 26 -22 -10 -6 -30 -21 -44 -34
-14 -12 -32 -20 -39 -18 -12 5 -18 -6 -14 -27 1 -4 -15 -5 -34 -1 -36 6 -45
-5 -27 -33 13 -20 75 -41 112 -37 30 3 32 2 10 -5 -14 -5 -23 -10 -20 -11 22
-7 50 -9 75 -3 27 5 28 7 10 14 -15 6 -10 8 20 7 22 0 51 4 65 10 21 10 19 10
-17 5 -24 -3 -43 -3 -43 1 0 4 12 19 26 33 22 22 29 24 45 15 14 -9 19 -9 19
-1 0 8 4 8 15 -1 8 -6 20 -8 26 -4 22 13 73 11 101 -5 32 -17 44 -51 20 -52
-14 0 -13 -2 3 -9 11 -5 16 -9 11 -9 -5 -1 -3 -7 3 -15 7 -8 8 -17 3 -20 -7
-4 -205 -8 -252 -5 -8 0 -40 0 -69 -2 -35 -1 -56 2 -59 9 -2 7 -16 12 -30 11
l-27 -1 25 -8 c42 -14 -126 -16 -205 -3 l-40 7 30 7 c30 7 30 7 3 8 -15 0 -30
6 -33 11 -8 13 0 12 86 -1 39 -6 73 -9 75 -6 3 3 -35 11 -84 17 -50 7 -96 16
-103 21 -29 18 4 20 83 5 156 -29 115 -8 -55 29 -87 19 -101 31 -17 15 29 -6
55 -8 58 -6 4 4 -45 19 -99 30 -35 7 -46 43 -15 49 11 2 -3 5 -31 6 -29 0 -53
6 -53 11 0 6 8 11 18 11 9 1 69 5 132 9 l115 7 -155 2 c-162 3 -175 6 -69 20
l64 8 -80 2 c-44 1 -91 4 -105 7 -22 5 -20 1 15 -28 102 -84 167 -178 212
-311 33 -97 42 -251 19 -322 l-16 -50 7 50 c5 28 8 91 7 140 -1 74 -6 104 -31
170 -34 89 -64 147 -79 152 -6 2 -15 -6 -21 -19 l-10 -22 -24 28 c-13 16 -31
36 -40 45 -9 9 -24 28 -34 43 -16 26 -16 29 0 44 10 11 13 20 7 26 -13 13 -32
2 -32 -18 0 -20 -31 -11 -91 27 -25 16 -51 29 -57 29 -6 0 -23 5 -39 12 -34
13 -31 13 -164 32 -59 9 -134 16 -168 16 -45 0 -61 4 -61 14 0 8 8 17 18 21
16 6 16 7 -2 17 -34 19 5 28 96 22 70 -6 90 -4 102 8 10 10 11 19 5 25 -18 18
47 38 79 24 25 -11 26 -10 8 4 -19 14 -18 15 20 16 l39 1 -35 11 c-27 8 -30
11 -15 14 11 2 27 7 35 10 8 3 21 5 29 4 8 -1 10 2 5 10 -4 7 -3 10 4 6 14 -9
43 3 36 14 -3 5 6 9 20 9 14 0 26 5 26 11 0 6 8 8 19 4 11 -3 22 -1 25 4 4 6
13 8 20 5 17 -6 31 12 16 21 -24 15 -6 24 53 27 69 3 177 -11 177 -24z m-300
18 c0 -3 -4 -8 -10 -11 -5 -3 -10 -1 -10 4 0 6 5 11 10 11 6 0 10 -2 10 -4z
m944 -87 c33 -33 55 -59 49 -59 -6 0 -23 14 -36 30 -14 17 -29 30 -34 30 -4 0
-26 17 -48 37 -33 30 -36 34 -15 28 13 -4 51 -34 84 -66z m-1098 36 c-25 -19
-36 -19 -36 0 0 10 10 15 28 15 26 -1 26 -1 8 -15z m-1093 -92 c-7 -2 -19 -2
-25 0 -7 3 -2 5 12 5 14 0 19 -2 13 -5z m0 -20 c-7 -2 -19 -2 -25 0 -7 3 -2 5
12 5 14 0 19 -2 13 -5z m787 -3 c0 -5 -4 -10 -10 -10 -5 0 -10 5 -10 10 0 6 5
10 10 10 6 0 10 -4 10 -10z m-803 -16 c-3 -3 -12 -4 -19 -1 -8 3 -5 6 6 6 11
1 17 -2 13 -5z m315 -191 c-12 -2 -20 -9 -17 -14 4 -5 -2 -10 -12 -10 -10 -1
-2 -4 17 -8 32 -6 35 -9 36 -44 1 -21 5 -41 9 -45 4 -4 -10 -13 -32 -20 -26
-8 -29 -11 -11 -8 32 4 51 -14 42 -38 -3 -9 -2 -16 3 -16 5 0 10 -25 11 -55 0
-30 3 -64 7 -75 6 -20 2 -20 -212 -22 l-218 -2 175 -7 c96 -3 190 -7 208 -8
18 0 31 -5 27 -10 -3 -6 1 -13 9 -18 12 -7 13 -17 4 -58 -6 -27 -10 -58 -10
-68 1 -16 -6 -18 -56 -13 l-57 5 53 -10 c46 -9 53 -14 50 -32 -3 -22 -7 -22
-228 -27 l-225 -6 201 -2 c111 -1 222 -5 247 -8 39 -6 44 -9 32 -20 -7 -8 -20
-14 -27 -14 -9 -1 -7 -5 4 -14 17 -12 17 -14 0 -30 -10 -9 -25 -16 -33 -17 -8
0 4 -6 26 -13 37 -11 38 -13 17 -20 -13 -4 -113 -11 -222 -15 -110 -4 -201 -9
-204 -11 -2 -3 97 -4 220 -2 123 2 224 0 224 -5 0 -4 -10 -15 -22 -23 -18 -11
-87 -15 -342 -18 -349 -5 -421 2 -423 39 -2 19 2 19 60 12 34 -4 79 -8 99 -7
38 0 68 17 54 31 -4 4 -10 3 -14 -3 -4 -5 -23 -10 -42 -9 -19 1 -63 2 -97 3
-56 2 -63 4 -63 22 0 15 7 20 28 21 l27 2 -27 4 c-22 4 -26 9 -26 34 1 18 9
36 20 44 18 12 18 14 3 22 -11 7 -17 26 -19 66 -1 31 1 57 6 57 5 0 4 8 -1 18
-12 23 -11 81 1 88 5 4 51 9 101 14 l92 7 -102 2 c-84 1 -103 4 -103 16 0 8
10 16 23 16 20 2 21 2 1 6 -19 4 -20 10 -18 96 1 51 3 97 4 102 1 6 1 13 0 18
-4 17 -3 75 3 90 6 15 40 17 374 16 202 -1 358 -4 345 -6z m1625 -69 c-3 -3
-12 -4 -19 -1 -8 3 -5 6 6 6 11 1 17 -2 13 -5z m63 -68 c0 -3 -4 -8 -10 -11
-5 -3 -10 -1 -10 4 0 6 5 11 10 11 6 0 10 -2 10 -4z m-482 -62 c-4 -3 -2 -19
2 -36 7 -23 6 -27 -3 -19 -16 13 -20 61 -5 61 6 0 9 -3 6 -6z m285 -83 c95 -1
126 -4 121 -13 -5 -8 -2 -9 12 -3 10 5 93 10 184 12 l165 4 17 -40 c11 -29 13
-41 5 -41 -7 0 -6 -4 3 -10 11 -7 12 -10 2 -10 -9 0 -11 -7 -7 -19 5 -18 0
-20 -52 -24 l-58 -3 61 -2 c42 -1 66 -7 74 -18 11 -13 10 -16 -11 -22 -23 -6
-23 -6 6 -13 l30 -7 -33 -1 c-35 -1 -36 -21 -1 -21 23 0 25 -13 4 -30 -12 -10
-13 -16 -4 -26 9 -11 8 -14 0 -14 -7 0 -10 -4 -7 -9 11 -16 -78 -22 -353 -20
-247 1 -273 2 -248 15 34 18 35 27 1 14 -32 -13 -37 -12 -29 0 3 6 0 11 -7 11
-7 1 1 5 17 9 24 6 26 8 8 9 -16 1 -23 7 -23 21 0 12 10 24 23 30 15 6 17 9 6
9 -9 1 -20 8 -23 17 -5 12 0 15 19 12 32 -4 29 12 -7 38 -28 21 -28 22 -6 28
23 6 23 6 -6 31 -33 28 -42 55 -20 55 8 0 14 5 14 10 0 6 -9 10 -19 10 -11 0
-23 5 -26 10 -4 6 3 8 17 6 13 -3 81 -5 151 -5z m14 -406 l1 -45 -83 0 -83 0
11 25 c7 14 16 25 20 25 5 0 15 7 24 15 8 9 23 13 33 10 10 -3 21 -1 25 5 3 5
16 10 29 10 20 0 23 -5 23 -45z m109 30 c13 -12 10 -15 -21 -21 -21 -4 -41 -2
-49 5 -7 6 -15 9 -18 6 -2 -3 -5 2 -5 10 0 20 73 20 93 0z m-2430 -31 c-3 -8
-2 -12 4 -9 5 3 9 -46 8 -127 0 -73 -4 -119 -7 -103 -5 24 -8 26 -13 13 -4
-10 -5 -26 -2 -35 5 -14 4 -15 -4 -4 -6 8 -10 59 -9 115 l0 101 6 -75 c4 -48
8 -64 11 -45 7 45 -1 136 -11 129 -10 -6 -11 2 -3 34 4 12 11 22 16 22 6 0 7
-7 4 -16z m974 -24 c12 0 8 -39 -5 -43 -6 -3 -10 13 -11 37 0 22 1 33 3 24 3
-10 8 -18 13 -18z m1366 -50 c1 -8 6 -26 11 -40 6 -15 7 -30 2 -36 -11 -13 -1
-24 21 -24 9 0 26 -11 38 -25 l22 -25 -169 0 -170 0 3 28 c2 15 4 30 5 34 0 4
11 10 22 13 17 6 19 9 8 16 -12 7 -12 9 0 9 10 0 11 3 2 13 -14 17 -5 27 28
28 20 1 21 3 7 6 -42 11 11 23 89 21 63 -2 80 -6 81 -18z m116 -2 c-7 -7 -12
-8 -12 -2 0 6 3 14 7 17 3 4 9 5 12 2 2 -3 -1 -11 -7 -17z m483 -38 c-3 -10 1
-23 10 -30 8 -7 15 -19 15 -28 0 -23 -70 -161 -89 -175 -9 -7 -28 -30 -42 -52
-14 -22 -50 -65 -78 -95 -42 -44 -54 -52 -61 -40 -9 13 -10 13 -10 0 0 -13 -2
-13 -9 -1 -11 17 -41 24 -41 10 0 -6 -4 -8 -9 -5 -14 9 -23 -26 -11 -38 8 -8
9 -5 5 9 -6 20 -6 20 6 0 11 -17 7 -24 -37 -62 -26 -24 -54 -43 -60 -43 -6 0
-19 -9 -29 -20 -10 -12 -24 -19 -30 -16 -7 2 -36 -9 -65 -25 -30 -16 -63 -31
-74 -33 -66 -12 -107 -29 -117 -48 -9 -17 -8 -24 5 -33 13 -10 11 -12 -14 -13
-20 0 -35 6 -42 18 -11 17 -13 17 -26 2 -9 -12 -15 -13 -18 -5 -3 7 -12 9 -20
6 -8 -3 -14 1 -14 8 0 11 -3 11 -10 -1 -7 -11 -10 -12 -10 -2 0 8 -6 12 -12 9
-7 -2 -19 3 -26 12 -12 14 -13 13 -8 -7 4 -22 3 -22 -12 -9 -11 10 -24 12 -37
7 -27 -11 -35 -12 -35 -1 0 5 62 30 138 55 175 60 335 122 392 155 188 105
303 223 404 417 26 50 54 91 62 91 9 0 12 -7 9 -17z m-493 -18 c-7 -2 -10 -8
-6 -13 3 -5 1 -9 -5 -9 -5 0 -9 9 -8 19 1 12 6 17 16 13 10 -4 11 -7 3 -10z
m98 -9 c0 -12 -2 -12 -15 1 -8 8 -15 17 -15 20 0 3 7 3 15 0 8 -4 15 -13 15
-21z m420 7 c0 -5 -2 -10 -4 -10 -3 0 -8 5 -11 10 -3 6 -1 10 4 10 6 0 11 -4
11 -10z m-2124 -16 l28 -7 -25 -10 c-13 -5 -19 -11 -12 -14 19 -7 3 -33 -21
-33 -17 0 -18 -2 -6 -10 13 -9 13 -11 0 -20 -13 -9 -13 -11 0 -20 10 -6 11
-10 3 -10 -7 0 -13 -9 -13 -20 0 -10 -8 -24 -17 -29 -17 -10 -17 -12 2 -27 11
-8 19 -22 17 -30 -2 -8 4 -14 13 -14 36 0 6 -25 -36 -30 -63 -7 -666 4 -674
12 -4 4 -7 26 -6 50 1 24 2 73 2 109 1 37 5 73 10 80 6 11 57 15 236 19 125 3
283 6 350 8 67 1 134 0 149 -4z m1679 -17 c13 4 16 3 11 -5 -5 -8 2 -12 23
-12 16 0 33 -5 37 -12 9 -13 -73 -3 -91 12 -7 6 -15 7 -18 3 -4 -3 -7 2 -7 12
0 14 3 15 14 6 7 -6 22 -8 31 -4z m141 -37 c0 -11 -6 -20 -12 -20 -7 0 -10 8
-7 20 3 11 8 20 12 20 4 0 7 -9 7 -20z m62 -65 c3 -3 -3 -5 -14 -5 -11 0 -15
-3 -9 -8 17 -11 12 -28 -16 -54 -14 -13 -30 -31 -35 -40 -5 -8 -22 -20 -39
-25 -25 -9 -30 -15 -29 -42 1 -21 -3 -31 -12 -31 -8 0 -23 -8 -33 -17 -10 -10
-30 -28 -43 -39 -29 -27 -114 -57 -139 -49 -13 4 -19 1 -19 -9 0 -9 8 -16 18
-16 9 -1 2 -8 -18 -16 -31 -14 -84 -15 -435 -10 -220 3 -413 10 -430 15 -23 7
-25 9 -9 10 11 1 36 9 55 18 19 10 50 18 69 19 78 3 125 14 152 34 16 12 36
20 44 18 11 -2 7 -12 -18 -37 -29 -30 -30 -32 -8 -21 14 7 29 19 33 26 4 8 20
14 34 14 26 0 26 -1 8 -14 -11 -8 -22 -13 -26 -11 -3 2 -6 -2 -6 -9 0 -14 37
-6 90 20 16 8 34 14 42 14 7 0 18 6 25 14 6 8 18 12 26 9 8 -3 14 0 14 6 0 6
-4 11 -10 11 -5 0 -10 5 -10 10 0 7 7 7 21 0 11 -6 28 -10 37 -8 14 3 12 7 -8
27 -20 18 -21 21 -5 13 11 -6 30 -20 42 -31 23 -22 39 -28 29 -12 -4 5 0 11 6
14 8 2 2 10 -14 17 -15 7 -25 17 -22 21 3 5 -1 9 -9 9 -8 0 -17 7 -20 14 -3 8
-22 18 -41 22 -43 8 -38 24 7 24 29 1 30 2 14 14 -17 13 -17 14 0 21 11 5 14
9 6 12 -8 3 -6 10 7 23 12 12 17 26 13 36 -6 16 18 17 337 11 189 -4 345 -9
348 -12z m-2731 -92 c-3 -10 -5 -4 -5 12 0 17 2 24 5 18 2 -7 2 -21 0 -30z m0
-65 c-3 -8 -6 -5 -6 6 -1 11 2 17 5 13 3 -3 4 -12 1 -19z m1980 -11 c0 -7 -9
-13 -19 -13 -23 0 -24 13 0 19 9 3 17 5 18 6 0 0 1 -5 1 -12z m-417 -7 c0 -5
8 -10 18 -11 14 0 14 -2 -3 -9 -33 -14 -45 -11 -45 10 0 11 7 20 15 20 8 0 15
-4 15 -10z m-1557 -25 c-7 -21 -12 -19 -10 4 0 11 5 18 9 15 4 -3 5 -11 1 -19z
m857 5 c-12 -8 -12 -10 5 -10 20 -1 20 -1 1 -15 -18 -14 -18 -15 -2 -15 22 0
11 -19 -18 -30 l-21 -9 23 0 c23 -1 30 -15 12 -26 -8 -5 -8 -11 0 -20 8 -10 7
-14 -7 -18 -14 -4 -13 -5 5 -6 34 -2 16 -21 -21 -22 -30 -2 -31 -2 -4 -6 38
-6 34 -23 -5 -24 -31 -2 -31 -2 -5 -6 31 -5 37 -23 7 -23 -21 0 -29 -20 -7
-20 6 0 4 -5 -5 -11 -28 -16 -21 -29 15 -30 29 0 30 -1 10 -9 -13 -5 -112 -14
-220 -20 -298 -17 -594 -7 -526 17 10 3 10 10 2 24 -8 15 -6 21 7 26 15 5 15
7 0 15 -21 12 -21 28 1 28 15 0 15 1 1 13 -18 15 -30 45 -20 51 5 3 7 34 6 70
-1 43 2 66 10 66 6 0 4 5 -4 10 -10 6 121 10 380 10 259 0 390 -4 380 -10z
m865 -70 c-3 -5 -12 -10 -18 -10 -7 0 -6 4 3 10 19 12 23 12 15 0z m171 -5
c-11 -8 -25 -15 -30 -15 -6 0 -2 7 8 15 11 8 25 15 30 15 6 0 2 -7 -8 -15z
m-1909 -102 c-3 -10 -5 -2 -5 17 0 19 2 27 5 18 2 -10 2 -26 0 -35z m2171 -9
c72 -3 132 -9 132 -13 0 -4 -11 -8 -24 -9 -20 -1 -81 -16 -153 -38 -13 -3 -21
-10 -18 -14 2 -4 -17 -15 -43 -25 -26 -9 -54 -19 -62 -22 -8 -4 -20 -5 -26 -4
-7 1 -14 -6 -18 -14 -5 -14 -33 -16 -201 -14 -186 1 -197 2 -229 24 -19 13
-42 25 -53 28 -16 4 -16 6 3 12 32 10 20 41 -14 39 -15 0 -30 3 -33 9 -10 15
2 46 20 50 19 6 532 -1 719 -9z m-2181 -136 c-2 -13 -4 -3 -4 22 0 25 2 35 4
23 2 -13 2 -33 0 -45z m881 -22 c3 -3 -2 -6 -11 -6 -9 0 -18 -4 -21 -9 -4 -5
3 -7 14 -4 23 6 22 12 24 -184 l1 -111 -29 -6 c-39 -8 -676 -8 -715 0 -27 6
-30 9 -19 22 9 11 9 13 1 9 -9 -6 -11 22 -10 110 2 116 2 117 27 124 14 4 18
7 9 8 -14 1 -29 20 -29 37 0 2 96 4 213 3 122 -1 201 -4 187 -9 -21 -7 -22 -8
-5 -9 12 -1 27 5 33 12 20 19 311 31 330 13z m915 -13 c120 -6 126 -7 112 -24
-15 -16 -14 -18 7 -33 13 -9 17 -16 9 -16 -31 0 -3 -9 49 -15 30 -4 57 -11 58
-16 2 -5 31 -9 65 -9 83 -1 55 -16 -49 -28 l-79 -9 75 -3 c41 -1 81 -2 88 -1
6 1 12 -3 12 -9 0 -5 -10 -10 -22 -11 -13 0 -31 -4 -41 -8 -10 -4 34 -6 98 -6
76 1 122 -3 132 -10 14 -11 7 -15 -48 -27 l-64 -15 75 5 c41 3 72 1 68 -3 -4
-4 0 -15 9 -24 18 -17 20 -18 58 -20 14 0 25 -5 25 -9 0 -14 -251 -22 -428
-13 -164 7 -190 14 -178 47 2 6 -5 16 -15 22 -10 7 -19 20 -19 29 0 9 -3 14
-6 10 -4 -3 -13 1 -21 9 -12 12 -13 18 -3 29 10 12 9 15 -3 15 -23 0 -110 87
-95 93 7 3 1 6 -14 6 -20 1 -26 5 -22 16 4 10 0 15 -12 15 -11 0 -26 5 -34 10
-18 12 32 13 213 3z m-1742 -120 c-8 -15 -10 -15 -11 -2 0 17 10 32 18 25 2
-3 -1 -13 -7 -23z m808 -239 c-7 -9 -22 -20 -34 -24 -18 -8 -17 -9 8 -9 27 -1
28 -3 24 -36 -4 -26 -1 -35 10 -35 8 0 11 -5 7 -12 -11 -17 -12 -78 -1 -78 5
0 2 -11 -7 -24 -9 -14 -12 -27 -7 -30 5 -4 7 -14 4 -25 -4 -16 -18 -19 -106
-24 -161 -8 -616 -2 -626 8 -11 12 -21 82 -13 90 11 10 10 35 0 35 -7 0 -6 5
1 14 8 10 9 15 1 18 -16 5 -1 38 19 39 15 1 15 2 0 6 -13 3 -16 15 -14 51 2
26 3 48 4 49 0 2 168 3 372 3 338 0 370 -2 358 -16z m-789 -109 c0 -11 -4 -26
-8 -33 -5 -8 -9 5 -9 33 0 28 4 41 9 33 4 -7 8 -22 8 -33z m-3 -77 c-3 -8 -6
-5 -6 6 -1 11 2 17 5 13 3 -3 4 -12 1 -19z m660 -135 c-1 -5 3 -8 8 -8 6 0 9
3 8 8 -2 4 9 7 23 7 30 0 28 -4 -30 -69 -22 -24 -25 -30 -11 -23 11 5 37 28
58 51 30 33 45 41 72 41 35 0 35 0 29 -37 -3 -21 -8 -41 -10 -45 -3 -4 0 -17
7 -29 6 -12 7 -24 2 -28 -5 -3 -9 -48 -10 -100 -1 -67 -5 -96 -14 -102 -8 -5
-43 -10 -79 -11 l-65 -2 79 -5 c44 -3 81 -11 83 -17 2 -7 -47 -13 -154 -17
-199 -9 -556 -9 -577 -1 -45 17 1 24 167 26 l182 3 -182 2 c-153 3 -183 6
-183 18 0 8 3 15 8 16 4 1 59 7 122 14 l115 14 -118 -4 -118 -3 -10 25 c-6 18
-6 30 2 40 9 10 9 17 1 25 -19 19 -15 58 6 59 16 1 16 2 0 6 -15 4 -18 16 -18
73 l0 69 148 4 c340 7 462 7 459 0z m1994 -63 c41 -18 42 -20 15 -20 -24 0
-27 -2 -16 -15 7 -8 22 -16 34 -16 17 -1 18 -2 3 -6 -16 -4 -15 -7 9 -28 17
-15 25 -29 21 -39 -4 -9 -3 -16 2 -16 5 0 9 -11 10 -25 3 -50 5 -55 18 -55 7
0 13 -7 13 -15 0 -10 -10 -15 -29 -15 -55 0 -44 -20 11 -21 42 -1 48 -3 28 -9
-14 -4 -171 -8 -348 -9 l-324 -1 4 43 c2 31 -1 41 -10 39 -8 -1 -11 2 -7 8 3
6 11 7 17 4 15 -10 128 -13 128 -4 0 4 -10 10 -21 13 -15 4 -20 11 -15 22 4
10 2 14 -5 9 -7 -4 -10 -1 -7 7 3 9 16 13 34 11 22 -2 26 -1 14 7 -8 6 -23 11
-32 11 -17 0 -23 12 -19 34 1 5 -5 6 -14 3 -8 -4 -15 -3 -15 2 0 5 -11 12 -25
15 -14 4 -23 11 -20 16 3 6 2 10 -4 10 -5 0 -13 9 -16 20 -5 14 -16 20 -38 21
-18 0 -41 4 -52 9 -12 5 110 9 296 9 295 1 320 0 360 -19z m-2652 -49 c0 -23
-1 -24 -8 -6 -8 19 -9 18 -13 -5 -3 -14 -6 -4 -6 25 -1 46 0 48 13 31 8 -11
15 -31 14 -45z m2063 24 c0 -5 -5 -11 -11 -13 -6 -2 -11 4 -11 13 0 9 5 15 11
13 6 -2 11 -8 11 -13z m-2061 -195 c0 -40 -3 -75 -6 -78 -3 -3 -5 32 -5 78 0
46 3 81 6 78 3 -4 5 -39 5 -78z m2714 -100 l-60 -7 53 -1 c47 -2 112 -24 112
-38 0 -2 -10 -9 -22 -14 -16 -6 -18 -9 -7 -9 9 -1 22 -8 29 -16 13 -15 2 -20
-65 -28 -16 -2 -5 -5 25 -6 40 -1 51 -4 40 -11 -12 -8 -10 -10 8 -10 13 0 20
-4 17 -10 -3 -5 1 -10 9 -10 23 0 31 -22 13 -35 -9 -7 -14 -15 -11 -18 4 -3
-4 -8 -17 -11 -13 -3 -33 -7 -44 -9 -11 -3 5 -6 35 -7 62 -2 115 -17 70 -20
-14 -1 -19 -4 -12 -7 19 -8 14 -21 -10 -26 -21 -4 -20 -4 3 -6 27 -1 64 -31
40 -31 -7 0 -10 -4 -7 -9 9 -13 -140 -21 -418 -21 -246 0 -313 8 -188 21 l57
6 -64 2 c-35 0 -62 4 -58 7 3 4 -4 15 -16 24 -29 24 -18 33 46 41 l52 6 -69 2
c-38 0 -66 4 -63 7 3 4 0 16 -8 28 -23 32 -18 46 18 47 32 0 31 0 -13 17 -39
15 -45 22 -48 50 -2 17 -8 32 -13 32 -6 0 -8 4 -4 9 3 5 1 12 -5 16 -5 3 -10
13 -10 22 0 13 13 15 93 10 58 -3 79 -2 57 3 -21 5 48 8 178 7 116 -1 212 1
212 6 0 4 28 6 63 5 l62 -1 -60 -7z m-2116 -33 c42 0 93 3 114 7 27 5 37 4 32
-3 -4 -7 5 -11 25 -11 27 0 29 -2 21 -18 -7 -13 -6 -23 1 -30 12 -12 10 -14
-34 -16 -15 -1 -25 1 -22 5 7 11 -19 16 -46 9 -14 -4 -52 -5 -85 -4 -53 2 -55
2 -15 -4 33 -5 44 -11 42 -22 -3 -12 -1 -12 9 -3 10 10 16 10 28 0 12 -9 13
-9 7 1 -5 8 -1 12 13 12 11 0 25 -8 30 -17 7 -11 14 -14 18 -8 11 14 40 17 48
5 4 -6 -1 -7 -12 -3 -15 5 -16 3 -5 -8 17 -18 15 -29 -5 -28 -11 0 -13 3 -5 6
21 8 4 21 -22 16 -14 -3 -28 -13 -31 -24 -3 -10 -12 -16 -19 -13 -8 3 -20 -1
-27 -9 -14 -15 -53 -11 -43 4 3 5 10 6 16 3 6 -4 8 -3 5 3 -4 6 -58 10 -129
10 l-123 0 107 -10 c89 -8 107 -12 111 -28 5 -19 -16 -34 -45 -30 -10 1 -26
-3 -35 -9 -14 -8 -14 -10 -3 -9 29 3 75 -3 63 -8 -7 -2 -15 -20 -19 -38 -3
-19 -11 -39 -18 -44 -7 -6 -103 -9 -241 -8 -205 2 -230 4 -233 19 -2 9 5 18
15 21 15 3 14 6 -7 15 -14 6 -19 11 -11 11 11 1 10 5 -4 15 -19 13 -18 15 15
24 19 6 28 11 20 11 -18 1 -51 37 -43 45 4 3 16 6 27 7 20 0 20 1 -1 11 -13 6
-23 17 -23 25 0 7 0 16 0 21 -1 4 37 12 82 19 l83 12 -76 -5 c-59 -4 -78 -2
-88 10 -10 12 -9 16 6 25 17 10 17 10 1 11 -10 0 -18 7 -18 15 0 12 32 15 203
17 111 2 217 1 236 -1 19 -2 69 -4 110 -4z m188 7 c-3 -3 -12 -4 -19 -1 -8 3
-5 6 6 6 11 1 17 -2 13 -5z m-820 -126 c-3 -8 -6 -5 -6 6 -1 11 2 17 5 13 3
-3 4 -12 1 -19z m-20 -20 c-3 -7 -5 -2 -5 12 0 14 2 19 5 13 2 -7 2 -19 0 -25z
m788 2 c3 -5 -1 -10 -10 -10 -9 0 -13 5 -10 10 3 6 8 10 10 10 2 0 7 -4 10
-10z m88 -214 c9 -5 17 -12 17 -16 0 -5 -8 -11 -17 -13 -12 -3 -8 -5 9 -6 43
-2 44 -21 1 -22 -26 -1 -30 -3 -13 -6 47 -8 57 -14 35 -23 -15 -7 -9 -9 25
-10 25 -1 56 -6 70 -11 16 -5 -33 -7 -129 -4 -84 2 -151 2 -148 -1 2 -3 103
-11 223 -18 l219 -13 -165 -1 c-91 0 -202 3 -247 6 -46 4 -90 5 -99 2 -21 -8
281 -30 411 -31 110 -1 99 -12 -25 -24 -39 -4 -69 -10 -66 -13 3 -3 52 -6 108
-8 137 -4 138 -4 138 -15 0 -5 -19 -9 -42 -9 -23 0 -38 -3 -34 -7 4 -5 -14
-13 -41 -20 -48 -11 -47 -11 46 -12 52 -1 92 -3 90 -5 -2 -2 -66 -10 -141 -17
-96 -9 -141 -9 -150 -2 -7 6 -22 7 -33 3 -11 -4 -30 -3 -43 1 -16 6 -21 6 -17
-2 8 -12 -55 -8 -175 12 -41 7 -90 12 -107 12 -18 0 -33 3 -33 7 0 4 -19 4
-42 -1 -24 -4 -65 -6 -93 -3 -42 4 -46 3 -25 -7 15 -6 49 -8 89 -4 36 4 61 3
58 -2 -3 -5 9 -7 26 -6 18 2 52 0 77 -5 41 -9 37 -10 -50 -12 -104 -3 -124 -3
-475 3 -167 3 -190 2 -73 -2 159 -6 236 -19 132 -23 l-49 -1 60 -6 c47 -5 24
-8 -105 -14 -91 -4 -183 -3 -205 2 l-40 9 40 2 c87 5 91 18 5 20 -71 1 -81 3
-60 12 l25 11 -30 6 c-25 5 -27 8 -12 14 10 4 15 12 12 17 -4 6 -3 10 2 9 20
-3 33 2 30 14 -1 9 28 13 113 16 l115 4 -60 12 -60 12 45 2 c25 1 70 8 100 16
30 8 39 13 20 10 -19 -2 -67 -8 -106 -11 -63 -6 -72 -5 -78 11 -4 11 -1 22 6
27 11 8 302 3 326 -5 4 -1 9 3 12 8 4 9 -98 16 -322 24 -55 2 -52 28 3 29 23
1 44 4 48 8 3 3 -9 5 -26 2 -18 -2 -33 -1 -33 4 0 4 16 8 35 8 35 0 98 30 95
46 -1 4 7 12 17 16 23 10 762 4 786 -6z m2153 -17 c10 -11 26 -18 36 -16 11 3
15 1 11 -6 -4 -6 2 -8 15 -5 12 4 20 3 18 -1 -3 -4 23 -8 57 -8 56 0 126 -17
115 -28 -2 -2 -31 2 -63 10 -71 16 -89 11 -21 -6 53 -13 70 -29 32 -29 -16 0
-26 -6 -26 -15 0 -8 -6 -15 -14 -15 -8 0 -17 -6 -20 -12 -5 -10 -7 -10 -12 -1
-4 10 -9 10 -20 -1 -20 -20 -18 -31 3 -15 15 12 16 12 10 -4 -6 -15 -3 -17 13
-12 11 4 20 2 20 -4 0 -6 10 -11 23 -11 18 0 19 -2 7 -10 -12 -8 -10 -10 10
-10 l25 -1 -25 -11 -25 -10 28 -10 c15 -5 27 -14 27 -19 0 -5 8 -10 18 -10 15
-1 15 -2 -2 -6 -10 -3 -33 -14 -50 -24 -28 -17 -29 -19 -8 -19 33 0 27 -17
-10 -29 -65 -20 -368 -29 -503 -15 -59 6 -147 42 -182 73 -10 9 -36 32 -58 50
-22 19 -39 39 -37 43 1 4 -2 8 -7 8 -10 0 -81 108 -81 124 0 6 -9 26 -20 44
l-20 32 359 0 c349 0 358 -1 377 -21z m-3003 -356 c-23 -2 -64 -2 -90 0 -26 2
-7 3 42 3 50 0 71 -1 48 -3z m135 0 c-10 -2 -26 -2 -35 0 -10 3 -2 5 17 5 19
0 27 -2 18 -5z m1001 -36 c-2 -1 -12 -9 -21 -16 -15 -12 -18 -11 -18 3 0 10 8
16 22 16 12 0 19 -1 17 -3z m-26 -62 c-7 -21 -13 -19 -13 6 0 11 4 18 10 14 5
-3 7 -12 3 -20z m-1291 -7 c-7 -7 -12 -8 -12 -2 0 14 12 26 19 19 2 -3 -1 -11
-7 -17z m1172 10 c-3 -4 -12 -8 -20 -8 -8 0 -13 4 -10 8 3 5 12 9 20 9 8 0 13
-4 10 -9z"/>
<path d="M2845 4310 c3 -5 13 -10 21 -10 8 0 12 5 9 10 -3 6 -13 10 -21 10 -8
0 -12 -4 -9 -10z"/>
<path d="M2764 4239 c-2 -4 8 -16 23 -27 44 -30 48 -31 63 -21 13 9 13 10 0 6
-13 -3 -40 14 -40 26 0 2 11 2 25 -1 15 -2 25 0 25 7 0 6 -6 12 -12 12 -46 5
-80 4 -84 -2z"/>
<path d="M2875 4229 c-4 -5 -4 -22 -1 -35 l7 -26 21 27 c17 22 19 29 7 36 -18
12 -26 11 -34 -2z"/>
<path d="M2721 4183 c13 -15 11 -16 -15 -9 -25 6 -28 5 -18 -7 7 -8 23 -12 43
-9 22 3 27 7 18 13 -8 5 -9 9 -4 9 12 0 -16 20 -29 20 -5 0 -2 -7 5 -17z"/>
<path d="M2602 4175 c9 -10 21 -16 28 -13 7 2 -1 10 -16 17 -27 12 -28 11 -12
-4z"/>
<path d="M2768 4183 c6 -2 18 -2 25 0 6 3 1 5 -13 5 -14 0 -19 -2 -12 -5z"/>
<path d="M2730 4046 c0 -2 7 -7 16 -10 8 -3 12 -2 9 4 -6 10 -25 14 -25 6z"/>
<path d="M3338 4033 c7 -3 16 -2 19 1 4 3 -2 6 -13 5 -11 0 -14 -3 -6 -6z"/>
<path d="M3193 3983 c9 -2 23 -2 30 0 6 3 -1 5 -18 5 -16 0 -22 -2 -12 -5z"/>
<path d="M2780 3969 c0 -5 5 -7 10 -4 6 3 10 8 10 11 0 2 -4 4 -10 4 -5 0 -10
-5 -10 -11z"/>
<path d="M3043 3933 c15 -2 37 -2 50 0 12 2 0 4 -28 4 -27 0 -38 -2 -22 -4z"/>
<path d="M3028 3903 c7 -3 16 -2 19 1 4 3 -2 6 -13 5 -11 0 -14 -3 -6 -6z"/>
<path d="M3290 3770 c8 -5 20 -10 25 -10 6 0 3 5 -5 10 -8 5 -19 10 -25 10 -5
0 -3 -5 5 -10z"/>
<path d="M3553 3763 c9 -2 23 -2 30 0 6 3 -1 5 -18 5 -16 0 -22 -2 -12 -5z"/>
<path d="M1210 3470 c36 -4 128 -10 205 -13 l140 -6 -165 14 c-181 14 -288 17
-180 5z"/>
<path d="M1578 3443 c6 -2 18 -2 25 0 6 3 1 5 -13 5 -14 0 -19 -2 -12 -5z"/>
<path d="M1325 3330 c-3 -5 1 -10 9 -10 9 0 16 5 16 10 0 6 -4 10 -9 10 -6 0
-13 -4 -16 -10z"/>
<path d="M1370 3299 c0 -5 5 -7 10 -4 6 3 10 8 10 11 0 2 -4 4 -10 4 -5 0 -10
-5 -10 -11z"/>
<path d="M1352 3238 c-7 -7 -33 -15 -60 -19 -45 -6 -46 -6 -9 -8 34 -1 97 21
97 34 0 9 -16 5 -28 -7z"/>
<path d="M3448 3538 c9 -9 27 -11 90 -9 81 2 61 16 -23 16 -41 0 -71 -3 -67
-7z"/>
<path d="M3191 3534 c-1 -18 26 -37 34 -24 3 5 0 10 -9 10 -8 0 -17 6 -19 13
-4 7 -6 8 -6 1z"/>
<path d="M3533 3486 c-13 -15 -2 -38 18 -36 30 5 41 0 35 -15 -3 -9 0 -15 9
-15 8 0 15 7 15 15 0 10 11 15 33 16 26 1 27 2 7 6 -37 6 -80 24 -80 34 0 13
-23 10 -37 -5z"/>
<path d="M3300 3480 c0 -5 6 -10 14 -10 8 0 18 5 21 10 3 6 -3 10 -14 10 -12
0 -21 -4 -21 -10z"/>
<path d="M3330 3460 c0 -5 13 -7 32 -3 22 4 29 3 24 -5 -5 -8 3 -12 26 -12
l33 0 -29 15 c-32 17 -86 20 -86 5z"/>
<path d="M3230 3410 c20 -5 39 -5 45 1 5 5 -8 9 -35 8 l-45 -1 35 -8z"/>
<path d="M3390 3400 c20 -13 50 -13 50 0 0 6 -15 10 -32 10 -25 0 -29 -3 -18
-10z"/>
<path d="M3200 3385 c-16 -9 -19 -14 -9 -15 8 0 24 7 35 15 24 18 7 19 -26 0z"/>
<path d="M3771 2998 c0 -9 -4 -18 -9 -20 -4 -1 -26 -28 -49 -58 -24 -30 -51
-64 -60 -74 -10 -11 -12 -16 -5 -12 7 4 19 3 27 -4 11 -9 19 -3 40 30 15 23
27 50 28 61 1 10 6 19 11 19 5 0 6 3 3 7 -4 3 0 11 9 18 9 6 14 20 11 31 -4
15 -5 15 -6 2z"/>
<path d="M3370 2863 c-19 -2 -42 -12 -50 -22 -11 -13 -47 -23 -126 -36 -72
-12 -111 -23 -111 -31 0 -13 2 -13 132 11 128 23 175 26 168 9 -6 -15 6 -18
22 -6 12 9 20 83 8 80 -4 0 -24 -3 -43 -5z"/>
<path d="M3355 2779 c-4 -6 -5 -12 -2 -15 2 -3 7 2 10 11 7 17 1 20 -8 4z"/>
<path d="M2660 2680 c-13 -8 -12 -10 3 -10 9 0 17 5 17 10 0 12 -1 12 -20 0z"/>
<path d="M1528 2533 c7 -3 16 -2 19 1 4 3 -2 6 -13 5 -11 0 -14 -3 -6 -6z"/>
<path d="M2550 2609 c0 -5 5 -7 10 -4 6 3 10 8 10 11 0 2 -4 4 -10 4 -5 0 -10
-5 -10 -11z"/>
<path d="M2628 2573 c6 -2 18 -2 25 0 6 3 1 5 -13 5 -14 0 -19 -2 -12 -5z"/>
<path d="M3298 1633 c7 -3 16 -2 19 1 4 3 -2 6 -13 5 -11 0 -14 -3 -6 -6z"/>
<path d="M3338 1633 c7 -3 16 -2 19 1 4 3 -2 6 -13 5 -11 0 -14 -3 -6 -6z"/>
<path d="M3305 1580 c3 -5 8 -10 11 -10 2 0 4 5 4 10 0 6 -5 10 -11 10 -5 0
-7 -4 -4 -10z"/>
<path d="M3200 1566 c0 -2 7 -6 15 -10 8 -3 15 -1 15 4 0 6 -7 10 -15 10 -8 0
-15 -2 -15 -4z"/>
<path d="M3288 1373 c7 -3 16 -2 19 1 4 3 -2 6 -13 5 -11 0 -14 -3 -6 -6z"/>
<path d="M3538 1163 c12 -2 30 -2 40 0 9 3 -1 5 -23 4 -22 0 -30 -2 -17 -4z"/>
<path d="M3378 1153 c17 -2 47 -2 65 0 17 2 3 4 -33 4 -36 0 -50 -2 -32 -4z"/>
<path d="M1728 1333 c7 -3 16 -2 19 1 4 3 -2 6 -13 5 -11 0 -14 -3 -6 -6z"/>
<path d="M1383 1303 c15 -2 39 -2 55 0 15 2 2 4 -28 4 -30 0 -43 -2 -27 -4z"/>
<path d="M1468 1113 c7 -3 16 -2 19 1 4 3 -2 6 -13 5 -11 0 -14 -3 -6 -6z"/>
<path d="M1738 953 c7 -3 16 -2 19 1 4 3 -2 6 -13 5 -11 0 -14 -3 -6 -6z"/>
<path d="M1541 946 c2 -2 49 -6 104 -9 69 -3 85 -3 50 3 -51 8 -162 13 -154 6z"/>
<path d="M1252 868 c7 -19 38 -22 38 -4 0 10 -9 16 -21 16 -12 0 -19 -5 -17
-12z"/>
<path d="M1508 873 c7 -3 16 -2 19 1 4 3 -2 6 -13 5 -11 0 -14 -3 -6 -6z"/>
<path d="M1590 849 c0 -5 19 -13 43 -20 23 -6 50 -18 59 -26 10 -9 26 -13 38
-10 11 3 20 1 20 -4 0 -5 8 -9 18 -10 11 -1 9 -4 -8 -9 -21 -7 -19 -8 17 -9
45 -1 75 -9 69 -20 -2 -3 12 -7 32 -7 21 -1 29 0 20 3 -10 2 -18 8 -18 13 0 5
-25 18 -55 29 -58 22 -96 41 -106 53 -7 11 -129 26 -129 17z"/>
<path d="M1341 843 c4 -26 -3 -35 -22 -30 -12 3 -18 2 -13 -3 12 -11 94 -18
94 -8 0 5 13 2 28 -6 25 -13 57 -20 190 -42 23 -3 32 -2 27 5 -3 6 0 11 7 11
23 1 -14 17 -57 25 -22 4 -34 10 -28 12 10 3 9 8 -2 20 -14 13 -19 12 -50 -11
-40 -31 -47 -32 -70 -6 -10 11 -21 18 -25 15 -4 -2 -16 2 -26 10 -20 15 -55
20 -53 8z"/>
<path d="M1788 823 c7 -3 16 -2 19 1 4 3 -2 6 -13 5 -11 0 -14 -3 -6 -6z"/>
<path d="M1103 803 c9 -2 23 -2 30 0 6 3 -1 5 -18 5 -16 0 -22 -2 -12 -5z"/>
<path d="M1640 800 c8 -5 24 -10 34 -10 26 0 18 6 -19 14 -22 5 -26 4 -15 -4z"/>
<path d="M1233 763 c9 -2 23 -2 30 0 6 3 -1 5 -18 5 -16 0 -22 -2 -12 -5z"/>
<path d="M1298 763 c6 -2 18 -2 25 0 6 3 1 5 -13 5 -14 0 -19 -2 -12 -5z"/>
<path d="M1692 750 c7 -10 14 -18 15 -16 6 6 -9 36 -18 36 -5 0 -4 -9 3 -20z"/>
<path d="M1098 743 c6 -2 18 -2 25 0 6 3 1 5 -13 5 -14 0 -19 -2 -12 -5z"/>
<path d="M1248 743 c6 -2 18 -2 25 0 6 3 1 5 -13 5 -14 0 -19 -2 -12 -5z"/>
<path d="M4015 776 c17 -7 41 -16 55 -20 20 -5 19 -3 -5 8 -16 7 -41 16 -55
20 -20 5 -19 3 5 -8z"/>
<path d="M4148 733 c7 -3 16 -2 19 1 4 3 -2 6 -13 5 -11 0 -14 -3 -6 -6z"/>
<path d="M547 4563 c-4 -3 -7 -118 -7 -255 l0 -248 35 -132 c19 -72 40 -135
47 -140 7 -4 68 -8 135 -8 107 0 122 -2 126 -17 3 -10 5 37 6 104 0 67 3 127
6 135 8 22 -9 37 -45 39 -19 1 -47 3 -62 6 -24 4 -25 7 -18 34 7 22 5 29 -5
29 -19 0 -28 -17 -13 -23 10 -3 8 -10 -6 -25 -16 -18 -27 -20 -93 -18 -41 2
-78 7 -83 12 -9 9 -12 339 -4 457 3 53 -2 67 -19 50z"/>
<path d="M1535 4560 c-3 -6 1 -7 9 -4 18 7 21 14 7 14 -6 0 -13 -4 -16 -10z"/>
<path d="M1448 4273 c7 -3 16 -2 19 1 4 3 -2 6 -13 5 -11 0 -14 -3 -6 -6z"/>
<path d="M908 4213 c12 -2 32 -2 45 0 12 2 2 4 -23 4 -25 0 -35 -2 -22 -4z"/>
<path d="M1650 4211 c0 -5 -10 -12 -22 -14 -16 -4 -14 -5 6 -4 27 2 52 27 27
27 -6 0 -11 -4 -11 -9z"/>
<path d="M1795 4211 l-30 -7 27 -6 c17 -3 32 0 39 8 12 15 10 15 -36 5z"/>
<path d="M838 4183 c12 -2 30 -2 40 0 9 3 -1 5 -23 4 -22 0 -30 -2 -17 -4z"/>
<path d="M1551 4136 c11 -11 65 -15 79 -6 11 7 1 10 -34 10 -27 0 -47 -2 -45
-4z"/>
<path d="M1540 4093 c-30 -2 -66 -6 -80 -10 -25 -6 -25 -6 5 -13 17 -3 38 -3
47 2 9 4 34 8 55 9 21 1 49 5 63 9 24 8 24 8 -5 7 -16 0 -55 -2 -85 -4z"/>
<path d="M2120 4090 c0 -5 5 -10 10 -10 6 0 10 5 10 10 0 6 -4 10 -10 10 -5 0
-10 -4 -10 -10z"/>
<path d="M4003 3530 c0 -41 2 -58 4 -37 2 20 2 54 0 75 -2 20 -4 3 -4 -38z"/>
<path d="M3981 3314 c0 -11 3 -14 6 -6 3 7 2 16 -1 19 -3 4 -6 -2 -5 -13z"/>
<path d="M1930 2876 c0 -2 7 -7 16 -10 8 -3 12 -2 9 4 -6 10 -25 14 -25 6z"/>
<path d="M2298 2853 c7 -3 16 -2 19 1 4 3 -2 6 -13 5 -11 0 -14 -3 -6 -6z"/>
<path d="M1997 2824 c-11 -19 10 -37 37 -30 33 8 35 30 1 24 -13 -3 -26 0 -28
5 -2 7 -5 8 -10 1z"/>
<path d="M2078 2509 c-15 -21 -29 -30 -37 -25 -9 6 -9 11 0 22 6 8 9 17 5 21
-3 3 -6 0 -6 -7 0 -7 -2 -11 -5 -8 -3 3 -19 -7 -35 -22 -28 -27 -30 -32 -30
-107 l0 -79 51 -3 c68 -3 210 -45 283 -84 91 -48 203 -164 254 -264 24 -46
124 -304 223 -575 99 -271 202 -538 229 -593 103 -214 209 -282 482 -306 235
-21 940 9 972 41 4 4 -47 8 -120 8 -157 -1 -206 3 -200 17 2 5 8 9 14 8 6 -2
9 3 6 10 -6 16 -34 19 -28 3 2 -6 0 -16 -4 -22 -9 -14 -124 -25 -115 -11 3 6
1 7 -4 4 -33 -21 -247 -31 -353 -18 -186 24 -258 53 -358 150 -53 51 -127 161
-151 223 -5 13 -18 44 -29 68 -11 25 -37 88 -57 140 -20 52 -40 100 -45 105
-4 6 -13 28 -20 50 -7 22 -21 58 -31 81 -25 56 -29 107 -14 166 13 47 12 53
-22 143 -30 78 -39 93 -50 83 -10 -8 -13 -23 -9 -47 5 -30 4 -33 -5 -18 -10
18 -9 38 7 101 3 15 2 26 -4 26 -5 0 -16 -26 -25 -57 -14 -57 -14 -58 -26 -30
-13 33 -14 117 -2 170 5 20 5 39 0 42 -4 3 -11 -17 -15 -45 -4 -28 -10 -53
-14 -55 -5 -3 -20 28 -35 67 -36 99 -75 186 -102 228 -27 40 -29 72 -8 94 17
16 20 36 6 36 -5 0 -13 -9 -16 -20 -7 -23 -35 -27 -35 -5 0 8 5 24 12 34 9 15
7 24 -13 49 -28 36 -49 41 -49 12 0 -11 -7 -20 -15 -20 -17 0 -20 25 -5 35 6
3 10 12 10 18 0 7 -10 0 -21 -15 -19 -26 -22 -27 -37 -11 -41 41 -185 119
-272 148 l-35 12 28 8 c20 5 33 3 46 -9 16 -15 19 -15 31 -1 15 18 17 17 -40
38 -62 23 -73 22 -93 -13 -10 -16 -25 -30 -33 -30 -17 0 -18 22 -2 38 8 8 9
15 2 22 -8 8 -18 1 -36 -21z m497 -239 c-5 -8 -11 -8 -17 -2 -6 6 -7 16 -3 22
5 8 11 8 17 2 6 -6 7 -16 3 -22z"/>
<path d="M2832 1840 c0 -14 2 -19 5 -12 2 6 2 18 0 25 -3 6 -5 1 -5 -13z"/>
<path d="M1962 1450 c0 -14 2 -19 5 -12 2 6 2 18 0 25 -3 6 -5 1 -5 -13z"/>
<path d="M1962 1355 c0 -16 2 -22 5 -12 2 9 2 23 0 30 -3 6 -5 -1 -5 -18z"/>
<path d="M1963 1250 c0 -25 2 -35 4 -22 2 12 2 32 0 45 -2 12 -4 2 -4 -23z"/>
<path d="M1950 1190 c0 -5 5 -10 10 -10 6 0 10 5 10 10 0 6 -4 10 -10 10 -5 0
-10 -4 -10 -10z"/>
<path d="M2423 1025 c0 -33 2 -45 4 -27 2 18 2 45 0 60 -2 15 -4 0 -4 -33z"/>
<path d="M2423 855 c0 -8 4 -15 9 -15 4 0 8 7 8 15 0 8 -4 15 -8 15 -5 0 -9
-7 -9 -15z"/>
<path d="M2427 823 c-11 -10 -8 -101 2 -108 6 -3 10 19 9 55 0 33 -2 60 -3 60
-1 0 -5 -3 -8 -7z"/>
<path d="M2420 685 c0 -8 2 -15 4 -15 2 0 6 7 10 15 3 8 1 15 -4 15 -6 0 -10
-7 -10 -15z"/>
<path d="M3963 575 c0 -7 8 -10 19 -7 10 2 18 6 18 7 0 1 -8 5 -18 7 -11 3
-19 0 -19 -7z"/>
<path d="M820 564 c0 -8 5 -12 10 -9 6 3 10 10 10 16 0 5 -4 9 -10 9 -5 0 -10
-7 -10 -16z"/>
<path d="M4039 563 c-12 -16 -12 -17 1 -7 8 6 22 14 30 17 13 5 12 6 -1 6 -9
1 -23 -7 -30 -16z"/>
</g>
</svg>
